<?xml version="1.0" standalone="no"?>
<!DOCTYPE svg PUBLIC "-//W3C//DTD SVG 20010904//EN"
 "http://www.w3.org/TR/2001/REC-SVG-20010904/DTD/svg10.dtd">
<svg version="1.0" xmlns="http://www.w3.org/2000/svg"
 width="225.000000pt" height="225.000000pt" viewBox="0 0 225.000000 225.000000"
 preserveAspectRatio="xMidYMid meet">
<metadata>
Created by potrace 1.16, written by Peter Selinger 2001-2019
</metadata>
<g transform="translate(0.000000,225.000000) scale(0.100000,-0.100000)"
fill="#000000" stroke="none">
<path d="M922 2033 c-11 -10 -60 -87 -108 -171 -76 -132 -85 -155 -73 -167 18
-19 29 -10 63 48 l28 48 41 -8 c103 -20 180 -3 257 58 27 21 51 39 53 39 2 0
69 -37 148 -83 158 -92 150 -81 134 -178 -11 -67 16 -149 66 -203 21 -24 39
-48 39 -53 0 -5 -14 -35 -31 -67 l-32 -58 -41 8 c-22 5 -86 9 -142 9 l-101 1
-33 37 c-50 57 -103 81 -180 81 -144 0 -250 -105 -250 -248 0 -30 4 -66 10
-80 l10 -26 -191 0 -190 0 12 23 c7 12 53 92 102 177 50 85 117 200 149 255
62 107 71 138 38 133 -15 -2 -65 -81 -184 -288 -90 -157 -181 -302 -201 -323
-31 -32 -36 -42 -30 -65 5 -15 7 -35 6 -44 -1 -10 -2 -31 -2 -48 0 -16 0 -39
0 -50 0 -11 0 -33 0 -50 0 -16 0 -39 0 -50 0 -11 0 -33 1 -50 0 -65 0 -81 0
-105 0 -14 0 -36 0 -50 0 -68 0 -82 -1 -105 0 -14 0 -35 0 -47 2 -48 2 -74 0
-103 -4 -54 19 -65 129 -65 90 0 97 1 97 20 0 18 -8 20 -80 23 -82 3 -108 13
-98 38 4 12 60 14 345 14 336 0 341 0 377 -23 l36 -22 -240 -5 c-216 -5 -240
-7 -243 -22 -2 -12 5 -19 22 -24 13 -3 197 -4 408 -1 324 3 392 7 443 21 232
67 405 285 405 511 0 68 -27 182 -61 252 -38 79 -130 179 -215 233 l-65 41 30
52 c16 29 59 104 95 167 36 63 66 125 66 136 0 12 -8 31 -17 42 -26 30 -730
432 -758 432 -12 0 -32 -8 -43 -17z m137 -74 c39 -23 71 -45 71 -49 0 -11 -43
-46 -80 -66 -40 -21 -152 -26 -170 -8 -13 13 -8 26 46 112 19 28 40 52 48 52
7 0 45 -19 85 -41z m619 -362 c6 -5 12 -15 12 -22 0 -20 -82 -155 -94 -155
-15 0 -60 66 -74 109 -15 42 -15 91 -2 126 l10 27 68 -38 c37 -20 73 -41 80
-47z m-590 -286 c20 -10 47 -30 60 -43 l22 -25 -84 -41 c-66 -33 -98 -57 -149
-112 -84 -91 -103 -91 -127 -1 -14 54 0 121 35 167 52 68 167 94 243 55z m335
-106 c79 -10 196 -76 265 -149 127 -137 167 -302 116 -486 -39 -138 -168 -277
-303 -325 -191 -67 -403 -17 -535 126 -103 111 -140 213 -134 371 3 93 7 110
39 178 74 155 225 270 379 289 65 7 82 7 173 -4z m-583 -244 c0 -5 -7 -17 -16
-25 -13 -14 -50 -16 -248 -16 -234 0 -261 4 -249 36 4 11 53 14 259 14 150 0
254 -4 254 -9z m-40 -105 c0 -33 -25 -36 -246 -34 -219 3 -219 3 -222 26 l-3
22 235 0 c194 0 236 -2 236 -14z m-22 -108 l-3 -23 -220 0 -220 0 -3 23 -3 22
226 0 226 0 -3 -22z m2 -103 l0 -25 -225 0 c-212 0 -225 1 -225 18 0 10 3 22
7 25 3 4 105 7 225 7 l218 0 0 -25z m18 -87 c35 -35 18 -38 -228 -38 -226 0
-240 1 -240 18 0 10 3 22 7 25 12 13 448 8 461 -5z m52 -107 c5 -11 10 -22 10
-25 0 -3 -119 -6 -265 -6 -250 0 -265 1 -265 18 0 10 3 22 7 25 3 4 118 7 254
7 235 0 249 -1 259 -19z m67 -103 c13 -12 23 -25 23 -30 0 -9 -553 -11 -587
-2 -22 6 -31 33 -16 47 3 4 130 7 282 7 268 0 275 -1 298 -22z"/>
<path d="M1255 1159 c-171 -25 -323 -169 -365 -347 -17 -73 -8 -193 20 -265
44 -116 152 -216 277 -258 53 -17 82 -21 161 -17 82 3 107 8 162 34 78 37 105
61 90 79 -8 10 -28 4 -91 -29 -79 -40 -84 -41 -178 -41 -87 0 -102 3 -161 32
-168 82 -249 218 -238 398 7 104 42 180 114 252 232 227 617 104 676 -216 15
-81 0 -174 -42 -255 -19 -38 -27 -63 -21 -69 18 -18 40 2 70 61 135 267 -37
593 -339 641 -36 6 -67 10 -70 10 -3 -1 -32 -5 -65 -10z"/>
<path d="M1312 998 c-7 -7 -12 -20 -12 -30 0 -11 -10 -20 -27 -24 -85 -18
-123 -58 -123 -127 0 -68 41 -115 110 -127 l35 -5 0 -80 0 -80 -50 -5 c-36 -4
-50 -9 -50 -20 0 -11 14 -16 53 -18 43 -3 52 -6 52 -21 0 -10 6 -24 14 -30 14
-12 27 -2 39 32 4 11 17 17 36 17 36 0 84 38 101 80 29 70 -22 157 -98 167
l-43 6 3 81 3 81 45 5 c31 3 45 10 45 20 0 11 -13 16 -47 18 -43 3 -48 6 -48
26 0 31 -22 50 -38 34z"/>
</g>
</svg>
